<svg width="32" height="32" viewBox="0 0 32 32" fill="none" xmlns="http://www.w3.org/2000/svg">
    <path d="M1 23V1H31V29.5858L24.7071 23.2929L24.4142 23H24H1Z" stroke="#006739" stroke-width="2"/>
    <path d="M14.474 14.16C14.474 13.896 14.51 13.656 14.582 13.44C14.666 13.212 14.78 13.002 14.924 12.81C15.068 12.618 15.236 12.432 15.428 12.252C15.632 12.072 15.848 11.892 16.076 11.712C16.472 11.376 16.778 11.076 16.994 10.812C17.222 10.536 17.336 10.242 17.336 9.92995C17.336 9.53395 17.216 9.22795 16.976 9.01195C16.736 8.78395 16.364 8.66995 15.86 8.66995C15.38 8.66995 15.014 8.79595 14.762 9.04795C14.51 9.29995 14.384 9.65395 14.384 10.11H11.54C11.54 9.59395 11.642 9.11395 11.846 8.66995C12.05 8.21395 12.338 7.81795 12.71 7.48195C13.082 7.13395 13.532 6.86395 14.06 6.67195C14.6 6.46795 15.2 6.36595 15.86 6.36595C16.556 6.36595 17.174 6.45595 17.714 6.63595C18.254 6.81595 18.704 7.06195 19.064 7.37395C19.436 7.68595 19.712 8.05195 19.892 8.47195C20.084 8.89195 20.18 9.34795 20.18 9.83995C20.18 10.212 20.132 10.548 20.036 10.848C19.952 11.148 19.832 11.424 19.676 11.676C19.532 11.916 19.364 12.138 19.172 12.342C18.98 12.546 18.788 12.732 18.596 12.9C18.284 13.176 18.038 13.404 17.858 13.584C17.678 13.764 17.54 13.914 17.444 14.034C17.36 14.154 17.306 14.262 17.282 14.358C17.258 14.442 17.246 14.526 17.246 14.61V14.88H14.474V14.16ZM15.86 19.434C15.38 19.434 14.972 19.272 14.636 18.948C14.312 18.612 14.15 18.204 14.15 17.724C14.15 17.244 14.312 16.842 14.636 16.518C14.972 16.182 15.38 16.014 15.86 16.014C16.34 16.014 16.742 16.182 17.066 16.518C17.402 16.842 17.57 17.244 17.57 17.724C17.57 18.204 17.402 18.612 17.066 18.948C16.742 19.272 16.34 19.434 15.86 19.434Z" fill="#006739"/>
</svg>
