<svg width="20" height="22" viewBox="0 0 20 22" fill="none" xmlns="http://www.w3.org/2000/svg">
    <path d="M1 16V3H19V19.5858L15.7071 16.2929L15.4142 16H15H1Z" stroke="#151516" stroke-width="2"/>
    <path d="M9.316 10.64C9.316 10.464 9.34 10.304 9.388 10.16C9.444 10.008 9.52 9.868 9.616 9.74C9.712 9.612 9.824 9.488 9.952 9.368C10.088 9.248 10.232 9.128 10.384 9.008C10.648 8.784 10.852 8.584 10.996 8.408C11.148 8.224 11.224 8.028 11.224 7.82C11.224 7.556 11.144 7.352 10.984 7.208C10.824 7.056 10.576 6.98 10.24 6.98C9.92 6.98 9.676 7.064 9.508 7.232C9.34 7.4 9.256 7.636 9.256 7.94H7.36C7.36 7.596 7.428 7.276 7.564 6.98C7.7 6.676 7.892 6.412 8.14 6.188C8.388 5.956 8.688 5.776 9.04 5.648C9.4 5.512 9.8 5.444 10.24 5.444C10.704 5.444 11.116 5.504 11.476 5.624C11.836 5.744 12.136 5.908 12.376 6.116C12.624 6.324 12.808 6.568 12.928 6.848C13.056 7.128 13.12 7.432 13.12 7.76C13.12 8.008 13.088 8.232 13.024 8.432C12.968 8.632 12.888 8.816 12.784 8.984C12.688 9.144 12.576 9.292 12.448 9.428C12.32 9.564 12.192 9.688 12.064 9.8C11.856 9.984 11.692 10.136 11.572 10.256C11.452 10.376 11.36 10.476 11.296 10.556C11.24 10.636 11.204 10.708 11.188 10.772C11.172 10.828 11.164 10.884 11.164 10.94V11.12H9.316V10.64ZM10.24 14.156C9.92 14.156 9.648 14.048 9.424 13.832C9.208 13.608 9.1 13.336 9.1 13.016C9.1 12.696 9.208 12.428 9.424 12.212C9.648 11.988 9.92 11.876 10.24 11.876C10.56 11.876 10.828 11.988 11.044 12.212C11.268 12.428 11.38 12.696 11.38 13.016C11.38 13.336 11.268 13.608 11.044 13.832C10.828 14.048 10.56 14.156 10.24 14.156Z"
          fill="#151516"/>
</svg>
