<svg width="18" height="17" viewBox="0 0 18 17" fill="none" xmlns="http://www.w3.org/2000/svg">
    <path d="M8.53027 0C3.85527 0 0.0302734 3.825 0.0302734 8.5C0.0302734 13.175 3.85527 17 8.53027 17C13.2053 17 17.0303 13.175 17.0303 8.5C17.0303 3.825 13.2053 0 8.53027 0ZM8.53027 2.125C12.0578 2.125 14.9053 4.9725 14.9053 8.5C14.9053 12.0275 12.0578 14.875 8.53027 14.875C5.00277 14.875 2.15527 12.0275 2.15527 8.5C2.15527 4.9725 5.00277 2.125 8.53027 2.125ZM7.46777 4.25V8.9675L7.80777 9.24375L8.87027 10.3062L9.59277 11.1138L11.1228 9.58375L10.3153 8.86125L9.59277 8.13875V4.2925H7.46777V4.25Z"
          fill="#008044"/>
</svg>
