<svg width="50" height="51" viewBox="0 0 50 51" fill="none" xmlns="http://www.w3.org/2000/svg">
    <path d="M25 49.8223C38.2 49.8223 49 39.0223 49 25.8223C49 12.6223 38.2 1.82227 25 1.82227C11.8 1.82227 1 12.6223 1 25.8223C1 39.0223 11.8 49.8223 25 49.8223Z"
          fill="white"/>
    <path d="M25 49.8223C38.2 49.8223 49 39.0223 49 25.8223C49 12.6223 38.2 1.82227 25 1.82227C11.8 1.82227 1 12.6223 1 25.8223C1 39.0223 11.8 49.8223 25 49.8223Z"
          stroke="#008044" stroke-width="2" stroke-linecap="round" stroke-linejoin="round"/>
    <path d="M25 49.8223C38.2 49.8223 49 39.0223 49 25.8223C49 12.6223 38.2 1.82227 25 1.82227C11.8 1.82227 1 12.6223 1 25.8223C1 39.0223 11.8 49.8223 25 49.8223Z"
          stroke="#008044" stroke-width="2" stroke-linecap="round" stroke-linejoin="round"/>
    <path d="M18.208 32.6144L31.7921 19.0305L18.208 32.6144Z" fill="white"/>
    <path d="M18.208 32.6144L31.7921 19.0305" stroke="#008044" stroke-width="2" stroke-linecap="round"
          stroke-linejoin="round"/>
    <path d="M18.208 32.6144L31.7921 19.0305" stroke="#008044" stroke-width="2" stroke-linecap="round"
          stroke-linejoin="round"/>
    <path d="M31.7921 32.6144L18.208 19.0305L31.7921 32.6144Z" fill="white"/>
    <path d="M31.7921 32.6144L18.208 19.0305" stroke="#008044" stroke-width="2" stroke-linecap="round"
          stroke-linejoin="round"/>
    <path d="M31.7921 32.6144L18.208 19.0305" stroke="#008044" stroke-width="2" stroke-linecap="round"
          stroke-linejoin="round"/>
</svg>
