<svg width="18" height="18" viewBox="0 0 18 18" fill="none" xmlns="http://www.w3.org/2000/svg">
    <rect x="7.08447" y="18" width="7.08417" height="2.11765" rx="1.05882" transform="rotate(-180 7.08447 18)"
          fill="#151516"/>
    <rect x="0.000488281" y="18" width="18" height="2.02405" rx="1.01202" transform="rotate(-90 0.000488281 18)"
          fill="#151516"/>
    <rect x="7.08447" y="2.11765" width="7.08417" height="2.11765" rx="1.05882" transform="rotate(-180 7.08447 2.11765)"
          fill="#151516"/>
    <path d="M6.83185 7.94116H16.9521C17.511 7.94116 17.9641 8.41521 17.9641 8.99999C17.9641 9.58476 17.511 10.0588 16.9521 10.0588H6.83185C6.27292 10.0588 5.81982 9.58476 5.81982 8.99999C5.81982 8.41521 6.27292 7.94116 6.83185 7.94116Z"
          fill="#151516"/>
    <path d="M12.991 3.35698L17.2839 7.84997C17.6791 8.26356 17.679 8.93399 17.2838 9.34751C16.8886 9.76093 16.248 9.76093 15.8528 9.34751C15.8528 9.34746 15.8527 9.34742 15.8527 9.34738L11.5598 4.85438C11.1646 4.44079 11.1647 3.77036 11.5599 3.35685C11.9551 2.94342 12.5957 2.94342 12.9909 3.35685C12.9909 3.35689 12.991 3.35693 12.991 3.35698Z"
          fill="#151516"/>
    <path d="M11.5594 13.1433L15.8538 8.65191C16.2491 8.23846 16.8899 8.23852 17.2851 8.65204C17.6803 9.06546 17.6803 9.73576 17.2851 10.1492C17.2851 10.1492 17.285 10.1493 17.285 10.1493L12.9906 14.6407C12.5953 15.0542 11.9545 15.0541 11.5592 14.6406C11.1641 14.2272 11.1641 13.5569 11.5592 13.1435C11.5593 13.1434 11.5593 13.1434 11.5594 13.1433Z"
          fill="#151516"/>
</svg>
