<svg width="36" height="32" viewBox="0 0 36 32" fill="none" xmlns="http://www.w3.org/2000/svg">
    <path d="M34.0515 8.20519H24.2054C23.5326 8.20519 22.9746 7.64724 22.9746 6.97442C22.9746 6.3016 23.5326 5.74365 24.2054 5.74365H34.0515C34.7244 5.74365 35.2823 6.3016 35.2823 6.97442C35.2823 7.64724 34.7244 8.20519 34.0515 8.20519Z" fill="#F6F6F6"/>
    <path d="M7.79487 8.20513H1.23077C0.557949 8.20513 0 7.64718 0 6.97436C0 6.30154 0.557949 5.74359 1.23077 5.74359H7.79487C8.46769 5.74359 9.02564 6.30154 9.02564 6.97436C9.02564 7.64718 8.46769 8.20513 7.79487 8.20513Z" fill="#F6F6F6"/>
    <path d="M14.3591 13.9487C10.5191 13.9487 7.38477 10.8144 7.38477 6.97436C7.38477 3.13436 10.5191 0 14.3591 0C18.1991 0 21.3335 3.13436 21.3335 6.97436C21.3335 10.8144 18.1991 13.9487 14.3591 13.9487ZM14.3591 2.46154C11.8648 2.46154 9.8463 4.48 9.8463 6.97436C9.8463 9.46872 11.8648 11.4872 14.3591 11.4872C16.8535 11.4872 18.8719 9.46872 18.8719 6.97436C18.8719 4.48 16.8535 2.46154 14.3591 2.46154Z" fill="#F6F6F6"/>
    <path d="M34.0515 26.2565H27.4874C26.8146 26.2565 26.2566 25.6985 26.2566 25.0257C26.2566 24.3529 26.8146 23.7949 27.4874 23.7949H34.0515C34.7243 23.7949 35.2823 24.3529 35.2823 25.0257C35.2823 25.6985 34.7243 26.2565 34.0515 26.2565Z" fill="#F6F6F6"/>
    <path d="M11.0769 26.2565H1.23077C0.557949 26.2565 0 25.6985 0 25.0257C0 24.3529 0.557949 23.7949 1.23077 23.7949H11.0769C11.7497 23.7949 12.3077 24.3529 12.3077 25.0257C12.3077 25.6985 11.7497 26.2565 11.0769 26.2565Z" fill="#F6F6F6"/>
    <path d="M20.9236 32C17.0836 32 13.9492 28.8656 13.9492 25.0256C13.9492 21.1856 17.0836 18.0513 20.9236 18.0513C24.7636 18.0513 27.8979 21.1856 27.8979 25.0256C27.8979 28.8656 24.7636 32 20.9236 32ZM20.9236 20.5128C18.4292 20.5128 16.4108 22.5313 16.4108 25.0256C16.4108 27.52 18.4292 29.5385 20.9236 29.5385C23.4179 29.5385 25.4364 27.52 25.4364 25.0256C25.4364 22.5313 23.4179 20.5128 20.9236 20.5128Z" fill="#F6F6F6"/>
</svg>
