<svg width="50" height="50" viewBox="0 0 50 50" fill="none" xmlns="http://www.w3.org/2000/svg">
    <path d="M25 49C38.2 49 49 38.2 49 25C49 11.8 38.2 1 25 1C11.8 1 1 11.8 1 25C1 38.2 11.8 49 25 49Z" stroke="#006739"
          stroke-opacity="0.5" stroke-width="2" stroke-linecap="round" stroke-linejoin="round"/>
    <path d="M25 49C38.2 49 49 38.2 49 25C49 11.8 38.2 1 25 1C11.8 1 1 11.8 1 25C1 38.2 11.8 49 25 49Z" stroke="#006739"
          stroke-opacity="0.5" stroke-width="2" stroke-linecap="round" stroke-linejoin="round"/>
    <path d="M18.2078 31.7919L31.7918 18.208" stroke="#006739" stroke-opacity="0.5" stroke-width="2"
          stroke-linecap="round" stroke-linejoin="round"/>
    <path d="M18.2078 31.7919L31.7918 18.208" stroke="#006739" stroke-opacity="0.5" stroke-width="2"
          stroke-linecap="round" stroke-linejoin="round"/>
    <path d="M31.7918 31.7919L18.2078 18.208" stroke="#006739" stroke-opacity="0.5" stroke-width="2"
          stroke-linecap="round" stroke-linejoin="round"/>
    <path d="M31.7918 31.7919L18.2078 18.208" stroke="#006739" stroke-opacity="0.5" stroke-width="2"
          stroke-linecap="round" stroke-linejoin="round"/>
</svg>
