<svg width="1240" height="225" viewBox="0 0 1240 225" fill="none" xmlns="http://www.w3.org/2000/svg">
    <path d="M-22 -3.99995C-22 43.8334 7.3 130.9 124.5 96.5001C271 53.5001 397.877 -155.432 529.5 -21.4999C586.5 36.5 699 24 771.5 -3.00003M1362.5 -3.99995C1360.67 51.5 1359.59 102.522 1127 90.5C904.5 79 851.5 334.5 549.5 245.5C515.582 235.504 400.5 126 273 229"
          stroke="white" stroke-width="5"/>
    <path d="M-52.5 237.5C-5 189.833 114.6 105.4 213 149C336 203.5 387 296.5 613.5 149C840 1.50005 951.5 91.5001 1068 149C1184.5 206.5 1332.5 -30.9998 1183.5 -26.9998"
          stroke="white" stroke-width="5"/>
</svg>
