<svg width="32" height="24" viewBox="0 0 32 24" fill="none" xmlns="http://www.w3.org/2000/svg">
    <path d="M16.12 0C6 0 0 12 0 12C0 12 6 24 16.12 24C26 24 32 12 32 12C32 12 26 0 16.12 0ZM16 4C20.44 4 24 7.6 24 12C24 16.44 20.44 20 16 20C11.6 20 8 16.44 8 12C8 7.6 11.6 4 16 4ZM16 8C13.8 8 12 9.8 12 12C12 14.2 13.8 16 16 16C18.2 16 20 14.2 20 12C20 11.6 19.84 11.24 19.76 10.88C19.44 11.52 18.8 12 18 12C16.88 12 16 11.12 16 10C16 9.2 16.48 8.56 17.12 8.24C16.76 8.12 16.4 8 16 8Z" fill="#006739"/>
</svg>
