<svg width="24" height="24" viewBox="0 0 24 24" fill="none" xmlns="http://www.w3.org/2000/svg">
    <path d="M10.4187 0C4.67353 0 0 4.67353 0 10.4187C0 16.1639 4.67353 20.8374 10.4187 20.8374C12.2345 20.8374 13.9611 20.3611 15.4494 19.5276C15.5284 19.6635 15.618 19.7929 15.7174 19.9146L18.6941 22.9807C18.969 23.29 19.3042 23.5398 19.6791 23.7149C20.054 23.8899 20.4608 23.9865 20.8744 23.9987C21.2879 24.0109 21.6997 23.9384 22.0842 23.7857C22.4688 23.633 22.8181 23.4033 23.1107 23.1107C23.4033 22.8181 23.633 22.4688 23.7857 22.0842C23.9384 21.6997 24.0109 21.2879 23.9987 20.8744C23.9865 20.4608 23.8899 20.054 23.7149 19.6791C23.5398 19.3042 23.29 18.969 22.9807 18.6941L19.9146 15.7174C19.7929 15.618 19.6635 15.5284 19.5276 15.4494C20.3313 13.9611 20.8374 12.2345 20.8374 10.4187C20.8374 4.67353 16.1639 0 10.4187 0ZM10.4187 2.97677C14.5564 2.97677 17.8606 6.28099 17.8606 10.4187C17.8606 12.175 17.2653 13.8122 16.2829 15.0625C16.2532 15.0922 16.2234 15.122 16.1936 15.1518C16.1331 15.1795 16.0735 15.2093 16.015 15.2411C15.7166 15.4694 15.4641 15.7522 15.2708 16.0746C13.9611 17.176 12.2643 17.8309 10.4187 17.8309C6.28099 17.8309 2.97677 14.5266 2.97677 10.3889C2.97677 6.25122 6.28099 2.947 10.4187 2.947V2.97677ZM8.93031 5.95354V8.93031H5.95354V11.9071H8.93031V14.8839H11.9071V11.9071H14.8839V8.93031H11.9071V5.95354H8.93031Z" fill="#F6F6F6"/>
</svg>