<svg width="745" height="369" viewBox="0 0 745 369" fill="none" xmlns="http://www.w3.org/2000/svg">
    <path d="M6.00002 1.5C-4.33331 30.6667 -0.0999756 94.1 99.5 114.5C224 140 306 49.5 399.5 160C493 270.5 567.376 185.774 658 211.5C735.5 233.5 770 308.833 768.5 322.5" stroke="#F6F6F6" stroke-opacity="0.2" stroke-width="4"/>
    <path d="M60 367C83.1667 330.667 147.9 255.5 221.5 245.5C313.5 233 596 289 668 219.5C740 150 785.5 190 759.5 161.5" stroke="white" stroke-opacity="0.6" stroke-width="4"/>
    <path d="M604.876 271.664C592.344 311.483 571.973 342.862 545 365L420 365L327.5 365C240.714 320.322 168.443 243.436 195.221 158.357C213.682 99.7043 261.708 128.512 317.076 110.061C357.935 96.4445 377.427 32.0163 446.869 40.2407C533.722 52.9703 636.96 169.727 604.876 271.664Z" fill="#006739"/>
    <path d="M604.876 271.664C592.344 311.483 571.973 342.862 545 365L420 365L327.5 365C240.714 320.322 168.443 243.436 195.221 158.357C213.682 99.7043 261.708 128.512 317.076 110.061C357.935 96.4445 377.427 32.0163 446.869 40.2407C533.722 52.9703 636.96 169.727 604.876 271.664Z" fill="white" fill-opacity="0.3"/>
    <path d="M594.359 272.871C581.884 312.504 561.616 343.558 535 365C535 365 500.5 365 427 365C385.5 365 337 365 337 365C257.644 323.591 193.462 251.353 219.035 170.104C236.653 114.128 280.482 140.933 331.583 122.727C369.294 109.291 394.087 46.808 451.667 54.7937C531.366 65.8471 624.978 175.588 594.359 272.871Z" fill="#006739" fill-opacity="0.3"/>
</svg>
