<svg width="285" height="241" viewBox="0 0 285 241" fill="none" xmlns="http://www.w3.org/2000/svg">
    <path d="M189.007 72.6218C210.636 102.899 203.942 144.647 174.199 165.895C144.456 187.142 102.792 179.939 81.1634 149.662C59.5346 119.385 66.2288 77.6365 95.9716 56.3892C125.714 35.1418 167.378 42.345 189.007 72.6218Z"
          stroke="#CC2222" stroke-opacity="0.5" stroke-width="6.72704"/>
    <path d="M77.5655 200.733C120.225 206.323 158.623 184.901 172.49 173.492C161.097 149.553 127.996 105.306 86.7352 119.829C45.4739 134.352 15.3344 140.059 5.4224 141.098C11.6953 158.647 34.906 195.143 77.5655 200.733Z"
          stroke="#006739" stroke-opacity="0.5" stroke-width="6.72704"/>
    <path d="M242.719 96.9998C228.793 137.707 192.553 162.606 176.175 169.967C159.781 149.132 134.824 99.8304 166.152 69.3039C197.481 38.7773 215.973 14.3036 221.302 5.8826C234.244 19.2936 256.645 56.2925 242.719 96.9998Z"
          stroke="#006739" stroke-opacity="0.5" stroke-width="6.72704"/>
</svg>
